<svg id="Layer_2" viewBox="0 0 512 512" xmlns="http://www.w3.org/2000/svg" xmlns:xlink="http://www.w3.org/1999/xlink" data-name="Layer 2"><linearGradient id="linear-gradient" gradientUnits="userSpaceOnUse" x1="183.49" x2="328.51" y1="183.49" y2="328.51"><stop offset="0" stop-color="#fd3"/><stop offset="1" stop-color="#ff7300"/></linearGradient><linearGradient id="linear-gradient-2" gradientUnits="userSpaceOnUse" x1="132.26" x2="379.74" y1="132.26" y2="379.74"><stop offset="0" stop-color="#ffe740"/><stop offset="1" stop-color="#ff8c00"/></linearGradient><g id="Icon"><g id="_25" data-name="25"><circle cx="256" cy="256" fill="#004daa" r="256"/><circle cx="256" cy="256" fill="url(#linear-gradient)" r="102.54"/><path d="m256 135.69c-5.66 0-10.25-4.59-10.25-10.25v-34.18c0-5.66 4.59-10.25 10.25-10.25 5.66 0 10.25 4.59 10.25 10.25v34.18c0 5.66-4.59 10.25-10.25 10.25zm10.25 285.06v-34.18c0-5.66-4.59-10.25-10.25-10.25-5.66 0-10.25 4.59-10.25 10.25v34.18c0 5.66 4.59 10.25 10.25 10.25 5.66 0 10.25-4.59 10.25-10.25zm120.31-154.49h34.18c5.66 0 10.25-4.59 10.25-10.25 0-5.66-4.59-10.25-10.25-10.25h-34.18c-5.66 0-10.25 4.59-10.25 10.25 0 5.66 4.59 10.25 10.25 10.25zm-295.31 0h34.18c5.66 0 10.25-4.59 10.25-10.25 0-5.66-4.59-10.25-10.25-10.25h-34.18c-5.66 0-10.25 4.59-10.25 10.25 0 5.66 4.59 10.25 10.25 10.25zm264.32-95.33 24.17-24.17c4-4 4-10.5 0-14.5-4-4-10.5-4-14.5 0l-24.17 24.17c-4 4-4 10.5 0 14.5 4 4 10.5 4 14.5 0zm-208.82 208.82 24.17-24.17c4-4 4-10.5 0-14.5-4-4-10.5-4-14.5 0l-24.17 24.17c-4 4-4 10.5 0 14.5 4 4 10.5 4 14.5 0zm194.32-24.17 24.17 24.17c4 4 10.5 4 14.5 0 4-4 4-10.5 0-14.5l-24.17-24.17c-4-4-10.5-4-14.5 0-4 4-4 10.5 0 14.5zm-208.82-208.82 24.17 24.17c4 4 10.5 4 14.5 0 4-4 4-10.5 0-14.5l-24.17-24.17c-4-4-10.5-4-14.5 0-4 4-4 10.5 0 14.5z" fill="url(#linear-gradient-2)"/></g></g></svg>