<svg xmlns="http://www.w3.org/2000/svg" version="1.1" xmlns:xlink="http://www.w3.org/1999/xlink" width="512" height="512" x="0" y="0" viewBox="0 0 512 512" style="enable-background:new 0 0 512 512" xml:space="preserve" class=""><g><circle cx="256" cy="256" r="256" fill="#004daa" opacity="1" data-original="#4793ff" class=""></circle><path fill="#004daa" d="M512 256c0-5.432-.19-10.819-.523-16.167L348.952 77.307 82.233 289.117l90.138 90.512-13.743 4.803L211.5 439l-52.872 10.644 59.573 59.573A258.137 258.137 0 0 0 256 512c141.385 0 256-114.615 256-256z" opacity="1" data-original="#424fdd" class=""></path><path fill="#ffffff" d="M158.628 415.986h192.745v33.658H158.628zM158.628 350.775h192.745v33.657H158.628z" opacity="1" data-original="#51eaf2" class=""></path><path fill="#ffffff" d="M255 350.775h96.37v33.659H255zM255 415.986h96.37v33.659H255z" opacity="1" data-original="#22c2d3" class=""></path><path fill="#2eb6ff" d="M385.158 160.362c-2.998 0-5.95.193-8.858.531.286-3.257.44-6.552.44-9.883 0-61.664-49.989-111.653-111.653-111.653-51.357 0-94.609 34.677-107.635 81.891a96.876 96.876 0 0 0-12.639-.829c-52.996 0-95.957 42.962-95.957 95.957s42.962 95.957 95.957 95.957h240.345c41.966 0 75.986-34.02 75.986-75.986 0-41.965-34.02-75.985-75.986-75.985z" opacity="1" data-original="#ffffff" class=""></path><path fill="#2eb6ff" d="M461.144 236.345c0 41.969-34.019 75.987-75.987 75.987H255V39.808c3.324-.306 6.687-.454 10.09-.454 61.666 0 111.653 49.987 111.653 111.653 0 3.334-.158 6.628-.444 9.883a77.32 77.32 0 0 1 8.857-.533c41.969 0 75.988 34.029 75.988 75.988z" opacity="1" data-original="#daefec" class=""></path></g></svg>