<svg id="Layer_2" viewBox="0 0 512 512" xmlns="http://www.w3.org/2000/svg" xmlns:xlink="http://www.w3.org/1999/xlink" data-name="Layer 2"><linearGradient id="linear-gradient" gradientUnits="userSpaceOnUse" x1="236.14" x2="349.43" y1="162.57" y2="275.86"><stop offset="0" stop-color="#fd3"/><stop offset="1" stop-color="#ff7300"/></linearGradient><linearGradient id="linear-gradient-2" gradientUnits="userSpaceOnUse" x1="195.05" x2="390.52" y1="121.48" y2="316.95"><stop offset="0" stop-color="#ffe740"/><stop offset="1" stop-color="#ff8c00"/></linearGradient><linearGradient id="linear-gradient-3" gradientUnits="userSpaceOnUse" x1="148.49" x2="363.67" y1="216.91" y2="432.09"><stop offset="0" stop-color="#def4ff"/><stop offset="1" stop-color="#2eb6ff"/></linearGradient><linearGradient id="linear-gradient-4" gradientUnits="userSpaceOnUse" x1="149.67" x2="202.05" y1="364.43" y2="416.81"><stop offset="0" stop-color="#0487ff"/><stop offset="1" stop-color="#61c2ff"/></linearGradient><linearGradient id="linear-gradient-5" x1="229.81" x2="282.19" xlink:href="#linear-gradient-4" y1="314.46" y2="366.85"/><linearGradient id="linear-gradient-6" x1="309.95" x2="362.33" xlink:href="#linear-gradient-4" y1="355.99" y2="408.38"/><g id="Icon"><g id="_04" data-name="04"><circle cx="256" cy="256" fill="#004daa" r="256"/><g><circle cx="292.79" cy="219.21" fill="url(#linear-gradient)" r="80.11"/><path d="m292.79 125.43c-4.72 0-8.54-3.83-8.54-8.54v-27.34c0-4.72 3.83-8.54 8.54-8.54 4.72 0 8.54 3.83 8.54 8.54v27.34c0 4.72-3.83 8.54-8.54 8.54zm0 231.99c-4.72 0-8.54-3.83-8.54-8.54v-27.34c0-4.72 3.83-8.54 8.54-8.54 4.72 0 8.54 3.83 8.54 8.54v27.34c0 4.72-3.83 8.54-8.54 8.54zm93.78-138.21c0-4.72 3.83-8.54 8.54-8.54h27.34c4.72 0 8.54 3.83 8.54 8.54 0 4.72-3.83 8.54-8.54 8.54h-27.34c-4.72 0-8.54-3.83-8.54-8.54zm-231.99 0c0-4.72 3.83-8.54 8.54-8.54h27.34c4.72 0 8.54 3.83 8.54 8.54 0 4.72-3.83 8.54-8.54 8.54h-27.34c-4.72 0-8.54-3.83-8.54-8.54zm204.53 66.31c3.34-3.34 8.75-3.34 12.08 0l19.33 19.33c3.34 3.34 3.34 8.75 0 12.08-3.34 3.34-8.75 3.34-12.08 0l-19.33-19.33c-3.34-3.34-3.34-8.75 0-12.08zm-164.06-164.04c3.34-3.34 8.75-3.34 12.08 0l19.33 19.33c3.34 3.34 3.34 8.75 0 12.08-3.34 3.34-8.75 3.34-12.08 0l-19.33-19.33c-3.34-3.34-3.34-8.75 0-12.08zm31.42 164.04c3.34 3.34 3.34 8.75 0 12.08l-19.33 19.33c-3.34 3.34-8.75 3.34-12.08 0-3.34-3.34-3.34-8.75 0-12.08l19.33-19.33c3.34-3.34 8.75-3.34 12.08 0zm164.04-164.04c3.34 3.34 3.34 8.75 0 12.08l-19.33 19.33c-3.34 3.34-8.75 3.34-12.08 0-3.34-3.34-3.34-8.75 0-12.08l19.33-19.33c3.34-3.34 8.75-3.34 12.08 0z" fill="url(#linear-gradient-2)"/></g><path d="m390.17 304c2.97-6.99 4.61-14.67 4.61-22.73 0-32.16-26.07-58.23-58.23-58.23-13.59 0-26.07 4.7-35.98 12.5-12.04-32.43-43.26-55.55-79.88-55.55-47.05 0-85.18 38.14-85.18 85.18 0 2.43.13 4.84.33 7.22-30.63 2.1-54.84 27.54-54.84 58.7s26.37 58.9 58.9 58.9h248.05c23.78 0 43.05-19.27 43.05-43.05 0-23.03-18.09-41.77-40.83-42.94z" fill="url(#linear-gradient-3)"/><path d="m204.85 402.01c0 16.01-12.98 28.99-28.99 28.99s-28.99-12.98-28.99-28.99 28.99-63.78 28.99-63.78 28.99 47.77 28.99 63.78z" fill="url(#linear-gradient-4)"/><path d="m256 288.27s-28.99 47.77-28.99 63.78 12.98 28.99 28.99 28.99 28.99-12.98 28.99-28.99-28.99-63.78-28.99-63.78z" fill="url(#linear-gradient-5)"/><path d="m336.14 329.8s-28.99 47.77-28.99 63.78 12.98 28.99 28.99 28.99 28.99-12.98 28.99-28.99-28.99-63.78-28.99-63.78z" fill="url(#linear-gradient-6)"/></g></g></svg>