<svg id="Layer_2" viewBox="0 0 512 512" xmlns="http://www.w3.org/2000/svg" xmlns:xlink="http://www.w3.org/1999/xlink" data-name="Layer 2"><linearGradient id="linear-gradient" gradientUnits="userSpaceOnUse" x1="221.64" x2="381.11" y1="113.92" y2="273.38"><stop offset="0" stop-color="#9cdeff"/><stop offset="1" stop-color="#038eff"/></linearGradient><linearGradient id="linear-gradient-2" gradientUnits="userSpaceOnUse" x1="141.56" x2="334.65" y1="154.78" y2="347.88"><stop offset="0" stop-color="#def4ff"/><stop offset="1" stop-color="#2eb6ff"/></linearGradient><linearGradient id="linear-gradient-3" gradientUnits="userSpaceOnUse" x1="149.67" x2="202.05" y1="358.87" y2="411.26"><stop offset="0" stop-color="#0487ff"/><stop offset="1" stop-color="#61c2ff"/></linearGradient><linearGradient id="linear-gradient-4" x1="229.81" x2="282.19" xlink:href="#linear-gradient-3" y1="308.91" y2="361.29"/><linearGradient id="linear-gradient-5" x1="309.95" x2="362.33" xlink:href="#linear-gradient-3" y1="350.43" y2="402.82"/><g id="Icon"><g id="_23" data-name="23"><circle cx="256" cy="256" fill="#004daa" r="256"/><path d="m400.74 178.46c2.2-5.18 3.42-10.87 3.42-16.85 0-23.83-19.32-43.15-43.15-43.15-10.07 0-19.32 3.48-26.66 9.26-8.92-24.04-32.05-41.16-59.19-41.16-34.86 0-63.13 28.26-63.13 63.12 0 1.8.09 3.58.24 5.35-22.7 1.55-40.64 20.41-40.64 43.5s19.54 43.65 43.65 43.65h183.82c17.62 0 31.9-14.28 31.9-31.9 0-17.06-13.41-30.96-30.26-31.82z" fill="url(#linear-gradient)"/><path d="m358.43 232.93c2.66-6.27 4.14-13.16 4.14-20.4 0-28.86-23.39-52.25-52.25-52.25-12.2 0-23.39 4.21-32.28 11.22-10.8-29.1-38.81-49.85-71.68-49.85-42.22 0-76.44 34.22-76.44 76.44 0 2.18.11 4.34.29 6.48-27.48 1.88-49.21 24.71-49.21 52.67s23.66 52.86 52.85 52.86h222.58c21.33 0 38.63-17.29 38.63-38.63 0-20.66-16.23-37.49-36.64-38.53z" fill="url(#linear-gradient-2)"/><path d="m204.85 396.46c0 16.01-12.98 28.99-28.99 28.99s-28.99-12.98-28.99-28.99 28.99-63.78 28.99-63.78 28.99 47.77 28.99 63.78z" fill="url(#linear-gradient-3)"/><path d="m256 282.71s-28.99 47.77-28.99 63.78 12.98 28.99 28.99 28.99 28.99-12.98 28.99-28.99-28.99-63.78-28.99-63.78z" fill="url(#linear-gradient-4)"/><path d="m336.14 324.24s-28.99 47.77-28.99 63.78 12.98 28.99 28.99 28.99 28.99-12.98 28.99-28.99-28.99-63.78-28.99-63.78z" fill="url(#linear-gradient-5)"/></g></g></svg>