<svg id="Layer_2" viewBox="0 0 512 512" xmlns="http://www.w3.org/2000/svg" xmlns:xlink="http://www.w3.org/1999/xlink" data-name="Layer 2"><linearGradient id="linear-gradient" gradientUnits="userSpaceOnUse" x1="132.26" x2="379.74" y1="132.26" y2="379.74"><stop offset="0" stop-color="#def4ff"/><stop offset="1" stop-color="#2eb6ff"/></linearGradient><g id="Icon"><g id="_34" data-name="34"><circle cx="256" cy="256" fill="#004daa" r="256"/><path d="m399.75 224.75h-68.31l48.3-48.3c12.2-12.2 12.2-31.99 0-44.19-12.2-12.2-31.99-12.2-44.19 0l-48.3 48.3v-68.31c0-17.26-13.99-31.25-31.25-31.25s-31.25 13.99-31.25 31.25v68.31l-48.3-48.3c-12.2-12.2-31.99-12.2-44.19 0s-12.2 31.99 0 44.19l48.3 48.3h-68.31c-17.26 0-31.25 13.99-31.25 31.25 0 17.26 13.99 31.25 31.25 31.25h68.31l-48.3 48.3c-12.2 12.2-12.2 31.99 0 44.19s31.99 12.2 44.19 0l48.3-48.3v68.31c0 17.26 13.99 31.25 31.25 31.25s31.25-13.99 31.25-31.25v-68.31l48.3 48.3c12.2 12.2 31.99 12.2 44.19 0 12.2-12.2 12.2-31.99 0-44.19l-48.3-48.3h68.31c17.26 0 31.25-13.99 31.25-31.25 0-17.26-13.99-31.25-31.25-31.25z" fill="url(#linear-gradient)"/></g></g></svg>