<svg xmlns="http://www.w3.org/2000/svg" version="1.1" xmlns:xlink="http://www.w3.org/1999/xlink" width="512" height="512" x="0" y="0" viewBox="0 0 512 512" style="enable-background:new 0 0 512 512" xml:space="preserve" class=""><g><circle cx="256" cy="256" r="256" fill="#004daa" opacity="1" data-original="#00337a" class=""></circle><path fill="#004daa" d="M512 256c0 110.79-70.38 205.14-168.87 240.78-7.78 2.82-15.74 5.27-23.85 7.33-20.24 5.15-41.44 7.89-63.28 7.89-11.1 0-22.04-.71-32.77-2.08C97.32 493.83 0 386.28 0 256 0 114.62 114.62 0 256 0c138.56 0 251.42 110.1 255.86 247.58v.01c.09 2.8.14 5.59.14 8.41z" opacity="1" data-original="#00337a" class=""></path><path fill="#002659" d="M319.28 504.11C299.04 509.26 277.84 512 256 512c-11.1 0-22.04-.71-32.77-2.08l-70.18-70.18 8.33-12.24-67.87-66.76 26.17-56.24zM512 256c0 110.79-70.38 205.14-168.87 240.78L171.2 324.89l8.33 1.37-70.95-71.19L340.51 70.88l171.35 176.7v.01c.09 2.8.14 5.59.14 8.41z" opacity="0" data-original="#002659" class=""></path><path fill="#2eb6ff" d="M372.378 143.529c-2.606 0-5.173.167-7.7.461.248-2.832.383-5.696.383-8.592 0-53.607-43.458-97.065-97.065-97.065-44.647 0-82.247 30.146-93.572 71.192a84.2 84.2 0 0 0-10.987-.721c-46.072 0-83.42 37.348-83.42 83.42s37.348 83.42 83.42 83.42h208.942c36.483 0 66.058-29.575 66.058-66.058-.001-36.482-29.576-66.057-66.059-66.057z" opacity="1" data-original="#51eaf2" class=""></path><path fill="#2eb6ff" d="M438.438 209.585c0 36.486-29.576 66.054-66.063 66.054h-113.15V38.723a97.007 97.007 0 0 1 8.768-.393c53.613 0 97.07 43.457 97.07 97.07 0 2.897-.14 5.758-.384 8.594a65.82 65.82 0 0 1 7.695-.463c36.488 0 66.064 29.568 66.064 66.054z" opacity="1" data-original="#22c2d3" class=""></path><path fill="#ffffff" d="m317.258 304.945-13.429 7.973h-18.317l14.549-14.55-14.315-14.316-14.549 14.55v-18.317l7.973-13.428-19.944-29.991-19.944 29.991 7.974 13.428v18.317l-14.55-14.55-14.315 14.316 14.549 14.55h-18.317l-13.429-7.973-29.99 19.943 29.99 19.943 13.429-7.973h18.317l-14.549 14.55 14.315 14.316 14.55-14.55v18.317l-7.974 13.428 19.944 29.991 19.944-29.991-7.973-13.428v-18.317l14.549 14.55 14.315-14.316-14.549-14.55h18.317l13.429 7.973 29.991-19.943z" opacity="1" data-original="#ffffff" class=""></path><path fill="#daefec" d="m347.249 324.89-29.995 19.944-13.428-7.974h-18.313l14.544 14.544-14.308 14.317-14.552-14.544v18.313l7.974 13.427-19.945 29.996V236.867l19.945 29.987-5.218 8.785-2.756 4.642v18.322l14.552-14.553 14.308 14.317-14.544 14.553h18.313l13.428-7.975z" opacity="1" data-original="#daefec" class=""></path><path fill="#ffffff" d="M153.053 381.5h26.174v58.242h-26.174z" opacity="1" data-original="#ffffff" class=""></path><path fill="#daefec" d="M339.227 381.5h26.174v58.242h-26.174z" opacity="1" data-original="#daefec" class=""></path><path fill="#ffffff" d="M93.506 304.5h26.174v56.242H93.506z" opacity="1" data-original="#ffffff" class=""></path><path fill="#daefec" d="M398.775 304.5h26.174v56.242h-26.174z" opacity="1" data-original="#daefec" class=""></path></g></svg>