<svg id="Layer_2" viewBox="0 0 512 512" xmlns="http://www.w3.org/2000/svg" xmlns:xlink="http://www.w3.org/1999/xlink" data-name="Layer 2"><linearGradient id="linear-gradient" gradientUnits="userSpaceOnUse" x1="156.78" x2="353.75" y1="164.59" y2="361.56"><stop offset="0" stop-color="#def4ff"/><stop offset="1" stop-color="#2eb6ff"/></linearGradient><linearGradient id="linear-gradient-2" gradientUnits="userSpaceOnUse" x1="188.57" x2="320.5" y1="156.98" y2="288.91"><stop offset="0" stop-color="#6bceff"/><stop offset="1" stop-color="#0084ff"/></linearGradient><linearGradient id="linear-gradient-3" gradientUnits="userSpaceOnUse" x1="176.62" x2="333.92" y1="199.93" y2="357.23"><stop offset="0" stop-color="#ff8661"/><stop offset="1" stop-color="#ff4b38"/></linearGradient><linearGradient id="linear-gradient-4" x1="239.17" x2="273.25" xlink:href="#linear-gradient" y1="347.81" y2="381.89"/><g id="Icon"><g id="_38" data-name="38"><circle cx="256" cy="256" fill="#004daa" r="256"/><path d="m288.71 302.6v-187.42c0-18.88-15.3-34.18-34.18-34.18-18.88 0-34.18 15.3-34.18 34.18v189.12c-19.62 12.01-32.71 33.65-32.71 58.34 0 37.75 30.61 68.36 68.36 68.36s68.36-30.61 68.36-68.36c0-25.9-14.41-48.44-35.65-60.04z" fill="url(#linear-gradient)"/><path d="m254.53 98.09c9.43 0 17.09 7.66 17.09 17.09v222.6h-34.18v-222.6c0-9.43 7.66-17.09 17.09-17.09z" fill="url(#linear-gradient-2)"/><path d="m271.62 313.8v-174.7h-34.18v175.74c-19.14 7.44-32.71 26.02-32.71 47.79 0 28.32 22.95 51.27 51.27 51.27s51.27-22.95 51.27-51.27c0-22.87-14.97-42.23-35.65-48.84z" fill="url(#linear-gradient-3)"/><path d="m256.02 389.25c6.39-.01 28.97-3.22 16.59-34.02 0 0-.35 6.71-3.75 7.75 0 0-.08-8.22-6.97-15.49-6.9-7.27-4.82-13.03-4.3-15.73 0 0-9.02 1.75-9.11 12.7-.09 10.96-3.64 13.51-3.64 13.51s-2.41-5.05-6.33-5.29c0 0 1.41 2.71-1.13 8.03-2.74 5.71-4.94 28.58 18.64 28.54z" fill="url(#linear-gradient-4)"/></g></g></svg>