<svg id="Layer_2" viewBox="0 0 512 512" xmlns="http://www.w3.org/2000/svg" xmlns:xlink="http://www.w3.org/1999/xlink" data-name="Layer 2"><linearGradient id="linear-gradient" gradientUnits="userSpaceOnUse" x1="156.78" x2="353.75" y1="164.59" y2="361.56"><stop offset="0" stop-color="#def4ff"/><stop offset="1" stop-color="#2eb6ff"/></linearGradient><linearGradient id="linear-gradient-2" gradientUnits="userSpaceOnUse" x1="188.57" x2="320.5" y1="156.98" y2="288.91"><stop offset="0" stop-color="#6bceff"/><stop offset="1" stop-color="#0084ff"/></linearGradient><linearGradient id="linear-gradient-3" x1="212.5" x2="298.03" xlink:href="#linear-gradient-2" y1="307.6" y2="393.12"/><linearGradient id="linear-gradient-4" x1="235.93" x2="276.07" xlink:href="#linear-gradient" y1="340.44" y2="380.57"/><g id="Icon"><g id="_39" data-name="39"><circle cx="256" cy="256" fill="#004daa" r="256"/><path d="m288.71 302.6v-187.42c0-18.88-15.3-34.18-34.18-34.18-18.88 0-34.18 15.3-34.18 34.18v189.12c-19.62 12.01-32.71 33.65-32.71 58.34 0 37.75 30.61 68.36 68.36 68.36s68.36-30.61 68.36-68.36c0-25.9-14.41-48.44-35.65-60.04z" fill="url(#linear-gradient)"/><path d="m254.53 98.09c9.43 0 17.09 7.66 17.09 17.09v222.6h-34.18v-222.6c0-9.43 7.66-17.09 17.09-17.09z" fill="url(#linear-gradient-2)"/><path d="m271.62 313.8v-31.14h-34.18v32.19c-19.14 7.44-32.71 26.02-32.71 47.79 0 28.32 22.95 51.27 51.27 51.27s51.27-22.95 51.27-51.27c0-22.87-14.97-42.23-35.65-48.84z" fill="url(#linear-gradient-3)"/><path d="m279.31 355.44h-11.08l7.83-7.83c1.98-1.98 1.98-5.19 0-7.17-1.98-1.98-5.19-1.98-7.17 0l-7.83 7.83v-11.08c0-2.8-2.27-5.07-5.07-5.07s-5.07 2.27-5.07 5.07v11.08l-7.83-7.83c-1.98-1.98-5.19-1.98-7.17 0s-1.98 5.19 0 7.17l7.83 7.83h-11.08c-2.8 0-5.07 2.27-5.07 5.07 0 2.8 2.27 5.07 5.07 5.07h11.08l-7.83 7.83c-1.98 1.98-1.98 5.19 0 7.17s5.19 1.98 7.17 0l7.83-7.83v11.08c0 2.8 2.27 5.07 5.07 5.07s5.07-2.27 5.07-5.07v-11.08l7.83 7.83c1.98 1.98 5.19 1.98 7.17 0 1.98-1.98 1.98-5.19 0-7.17l-7.83-7.83h11.08c2.8 0 5.07-2.27 5.07-5.07 0-2.8-2.27-5.07-5.07-5.07z" fill="url(#linear-gradient-4)"/></g></g></svg>