<svg id="Layer_2" viewBox="0 0 512 512" xmlns="http://www.w3.org/2000/svg" xmlns:xlink="http://www.w3.org/1999/xlink" data-name="Layer 2"><linearGradient id="linear-gradient" gradientUnits="userSpaceOnUse" x1="170.29" x2="356.03" y1="163.47" y2="349.2"><stop offset="0" stop-color="#def4ff"/><stop offset="1" stop-color="#2eb6ff"/></linearGradient><g id="Icon"><g id="_35" data-name="35"><circle cx="256" cy="256" fill="#004daa" r="256"/><path id="_35-2" d="m241.15 343.6h-149.9c-5.66 0-10.25-4.59-10.25-10.25s4.59-10.25 10.25-10.25h149.9c5.66 0 10.25 4.59 10.25 10.25s-4.59 10.25-10.25 10.25zm189.85-151.69c0-41.54-33.8-75.34-75.34-75.34s-75.34 33.8-75.34 75.34c0 5.66 4.59 10.25 10.25 10.25s10.25-4.59 10.25-10.25c0-30.24 24.6-54.83 54.83-54.83s54.83 24.6 54.83 54.83-24.6 54.83-54.83 54.83h-264.4c-5.66 0-10.25 4.59-10.25 10.25s4.59 10.25 10.25 10.25h264.4c41.54 0 75.34-33.8 75.34-75.34zm-88.79 148.26c0-30.47-24.79-55.25-55.25-55.25h-195.71c-5.66 0-10.25 4.59-10.25 10.25s4.59 10.25 10.25 10.25h195.7c19.16 0 34.75 15.59 34.75 34.75s-15.59 34.75-34.75 34.75c-5.66 0-10.25 4.59-10.25 10.25s4.59 10.25 10.25 10.25c30.47 0 55.25-24.79 55.25-55.25z" fill="url(#linear-gradient)" data-name="35"/></g></g></svg>