<svg id="Layer_2" viewBox="0 0 512 512" xmlns="http://www.w3.org/2000/svg" xmlns:xlink="http://www.w3.org/1999/xlink" data-name="Layer 2"><linearGradient id="linear-gradient" gradientUnits="userSpaceOnUse" x1="260.74" x2="374.41" y1="134.7" y2="248.37"><stop offset="0" stop-color="#fd3"/><stop offset="1" stop-color="#ff7300"/></linearGradient><linearGradient id="linear-gradient-2" gradientUnits="userSpaceOnUse" x1="148.49" x2="363.67" y1="237.05" y2="452.23"><stop offset="0" stop-color="#def4ff"/><stop offset="1" stop-color="#2eb6ff"/></linearGradient><g id="Icon"><g id="_06" data-name="06"><circle cx="256" cy="256" fill="#004daa" r="256"/><path d="m407.24 186.31c-2.17 42.46-37.28 76.21-80.27 76.21s-80.37-35.98-80.37-80.37 33.75-78.11 76.21-80.27c-20.15 10.42-33.92 31.45-33.92 55.7 0 34.6 28.06 62.66 62.66 62.66 24.25 0 45.28-13.77 55.7-33.92z" fill="url(#linear-gradient)"/><path d="m390.17 324.14c2.97-6.99 4.61-14.67 4.61-22.73 0-32.16-26.07-58.23-58.23-58.23-13.59 0-26.07 4.7-35.98 12.5-12.04-32.43-43.26-55.55-79.88-55.55-47.05 0-85.18 38.14-85.18 85.18 0 2.43.13 4.84.33 7.22-30.63 2.1-54.84 27.54-54.84 58.7s26.37 58.9 58.9 58.9h248.05c23.78 0 43.05-19.27 43.05-43.05 0-23.03-18.09-41.77-40.83-42.94z" fill="url(#linear-gradient-2)"/></g></g></svg>