<svg xmlns="http://www.w3.org/2000/svg" version="1.1" xmlns:xlink="http://www.w3.org/1999/xlink" width="512" height="512" x="0" y="0" viewBox="0 0 512 512" style="enable-background:new 0 0 512 512" xml:space="preserve" class=""><g><circle cx="256" cy="256" r="256" fill="#004daa" opacity="1" data-original="#00337a" class=""></circle><path fill="#004daa" d="M512 256c0-25.236-3.669-49.612-10.473-72.643L356.422 38.252S280 56.991 270 119.658 68.407 326.449 68.407 326.449l185.524 185.524c.691.005 1.377.026 2.069.026C397.385 512 512 397.385 512 256z" opacity="1" data-original="#002659" class=""></path><path fill="#51eaf2" d="M134.957 439.327h171.8v30h-171.8zM134.957 378.38h171.8v30h-171.8z" opacity="1" data-original="#51eaf2" class=""></path><path fill="#22c2d3" d="M219.107 378.384h87.648v30h-87.648zM219.107 439.328h87.648v30h-87.648z" opacity="1" data-original="#22c2d3" class=""></path><path fill="#ffea92" d="M352.69 153.096c-30.749-30.749-30.749-80.603 0-111.352a79.871 79.871 0 0 1 3.732-3.492c-30.639-.989-61.599 10.202-84.986 33.589-44.876 44.876-44.876 117.634 0 162.51s117.634 44.876 162.51 0c23.387-23.387 34.578-54.347 33.589-84.986a79.871 79.871 0 0 1-3.492 3.732c-30.75 30.748-80.603 30.748-111.353-.001z" opacity="1" data-original="#ffea92" class=""></path><path fill="#ffdd50" d="M433.948 234.351c-20.83 20.83-47.68 32-74.95 33.48v-109.07c30.92 24.95 76.32 23.06 105.04-5.67 1.22-1.21 2.38-2.46 3.5-3.73.99 30.64-10.21 61.6-33.59 84.99z" opacity="1" data-original="#ffdd50" class=""></path><path fill="#2eb6ff" d="M332.483 214.506c-2.612 0-5.183.168-7.716.462.249-2.837.384-5.707.384-8.609 0-53.713-43.543-97.257-97.257-97.257-44.735 0-82.41 30.205-93.757 71.332a84.364 84.364 0 0 0-11.009-.722c-46.163 0-83.585 37.422-83.585 83.585s37.422 83.585 83.585 83.585h209.355c36.555 0 66.188-29.633 66.188-66.188s-29.633-66.188-66.188-66.188z" opacity="1" data-original="#ffffff" class=""></path><path fill="#2eb6ff" d="M398.671 280.691c0 36.557-29.632 66.189-66.189 66.189H219.107V109.496a96.023 96.023 0 0 1 8.789-.395c53.714 0 97.257 43.542 97.257 97.257 0 2.904-.137 5.773-.387 8.609a67.302 67.302 0 0 1 7.715-.464c36.558-.001 66.19 29.64 66.19 66.188z" opacity="1" data-original="#daefec" class=""></path></g></svg>